<?xml version="1.0" standalone="no"?>
<!DOCTYPE svg PUBLIC "-//W3C//DTD SVG 20010904//EN"
 "http://www.w3.org/TR/2001/REC-SVG-20010904/DTD/svg10.dtd">
<svg version="1.0" xmlns="http://www.w3.org/2000/svg"
 width="444.000000pt" height="444.000000pt" viewBox="0 0 444.000000 444.000000"
 preserveAspectRatio="xMidYMid meet">
<metadata>
Created by potrace 1.11, written by Peter Selinger 2001-2013
</metadata>
<g transform="translate(0.000000,444.000000) scale(0.100000,-0.100000)"
fill="#000000" stroke="none">
<path d="M0 2220 l0 -2220 2220 0 2220 0 0 2220 0 2220 -2220 0 -2220 0 0
-2220z m2431 1201 c232 -73 343 -263 356 -608 l6 -153 -127 0 -126 0 0 83 c0
347 -91 489 -311 489 -224 0 -309 -119 -309 -434 0 -231 69 -312 424 -495 147
-75 203 -110 250 -154 150 -140 202 -318 177 -601 -17 -199 -57 -309 -144
-404 -88 -96 -193 -141 -357 -151 -238 -14 -423 75 -510 247 -55 110 -71 193
-77 403 l-6 187 120 0 120 0 6 -167 c8 -267 43 -364 145 -414 40 -20 63 -23
152 -24 118 0 157 14 216 77 71 75 98 171 99 353 0 121 -2 134 -27 188 -44 94
-106 144 -301 243 -345 174 -440 263 -504 470 -26 85 -26 365 0 479 52 224
179 359 376 401 92 19 266 12 352 -15z"/>
</g>
</svg>
