<?xml version="1.0" standalone="no"?>
<!DOCTYPE svg PUBLIC "-//W3C//DTD SVG 20010904//EN"
 "http://www.w3.org/TR/2001/REC-SVG-20010904/DTD/svg10.dtd">
<svg version="1.0" xmlns="http://www.w3.org/2000/svg"
 width="135.000000pt" height="18.000000pt" viewBox="0 0 135.000000 18.000000"
 preserveAspectRatio="xMidYMid meet">

<g transform="translate(0.000000,18.000000) scale(0.100000,-0.100000)"
fill="#000000" stroke="none">
<path d="M16 164 c-24 -24 -19 -43 19 -79 43 -39 40 -69 -7 -63 -18 3 -27 0
-25 -6 2 -6 14 -12 26 -14 56 -9 72 65 21 95 -40 23 -38 59 3 56 29 -2 37 11
11 21 -24 9 -31 8 -48 -10z"/>
<path d="M137 163 c-10 -19 -39 -155 -33 -160 3 -3 7 0 10 8 2 8 7 22 10 32
10 30 44 21 52 -15 4 -18 9 -27 11 -20 7 18 -27 162 -37 162 -5 0 -11 -3 -13
-7z m22 -70 c1 -7 -5 -13 -12 -13 -10 0 -12 10 -9 32 4 28 6 30 13 13 4 -11 8
-26 8 -32z"/>
<path d="M210 90 c0 -47 4 -80 10 -80 6 0 10 16 10 35 0 30 3 35 24 35 22 0
25 -5 29 -42 2 -24 4 -3 4 47 0 50 -2 73 -4 53 -4 -33 -8 -38 -29 -38 -21 0
-24 5 -24 35 0 19 -4 35 -10 35 -6 0 -10 -33 -10 -80z"/>
<path d="M346 158 c-16 -51 -36 -151 -32 -156 3 -3 7 1 10 9 2 8 7 22 10 32 9
29 44 21 51 -13 4 -17 10 -28 15 -25 10 6 -30 165 -42 165 -5 0 -10 -6 -12
-12z m24 -60 c0 -10 -6 -18 -13 -18 -9 0 -12 10 -9 31 3 22 7 27 13 18 5 -8 9
-22 9 -31z"/>
<path d="M432 83 c1 -48 3 -71 5 -50 5 43 29 51 39 12 3 -13 12 -29 20 -36 18
-15 18 -5 -2 33 -13 25 -14 35 -4 53 6 12 10 33 8 46 -2 19 -10 25 -35 27
l-33 3 2 -88z m42 61 c18 -18 5 -54 -19 -54 -15 0 -22 50 -8 63 9 9 9 9 27 -9z"/>
<path d="M640 85 l0 -85 35 0 c19 0 35 5 35 10 0 6 -11 10 -25 10 -21 0 -25 5
-25 30 0 25 4 30 25 30 14 0 25 5 25 10 0 6 -11 10 -25 10 -20 0 -25 5 -25 25
0 20 5 25 25 25 14 0 25 5 25 10 0 6 -16 10 -35 10 l-35 0 0 -85z"/>
<path d="M735 160 c3 -5 13 -10 21 -10 11 0 14 -16 14 -70 0 -40 4 -70 10 -70
6 0 10 30 10 70 0 56 3 70 15 70 8 0 15 5 15 10 0 6 -21 10 -46 10 -27 0 -43
-4 -39 -10z"/>
<path d="M842 88 c1 -82 1 -83 7 -23 l7 60 8 -50 c12 -74 23 -87 31 -40 10 60
13 64 14 18 1 -24 6 -43 11 -43 6 0 10 33 10 80 0 62 -3 80 -14 80 -10 0 -16
-19 -21 -61 -4 -33 -9 -59 -11 -56 -2 2 -7 27 -11 57 -5 29 -14 55 -21 58 -9
3 -12 -17 -10 -80z"/>
<path d="M968 163 c15 -6 17 -143 2 -143 -5 0 -10 -4 -10 -10 0 -5 14 -10 30
-10 17 0 30 5 30 10 0 6 -4 10 -10 10 -15 0 -13 137 3 143 6 3 -4 5 -23 5 -19
0 -29 -2 -22 -5z"/>
<path d="M1050 90 c0 -91 17 -109 22 -23 l3 58 21 -60 c11 -33 25 -60 30 -60
5 0 10 37 12 83 2 52 -1 82 -8 82 -6 0 -10 -26 -11 -62 l-1 -63 -21 63 c-30
88 -47 82 -47 -18z"/>
<path d="M1181 133 c-21 -80 -29 -123 -21 -123 4 0 11 11 14 25 4 16 13 25 26
25 13 0 22 -9 26 -25 3 -14 10 -25 16 -25 5 0 7 8 4 18 -3 9 -10 37 -16 62
-18 72 -21 80 -30 80 -5 0 -14 -17 -19 -37z m29 -28 c0 -14 -4 -25 -10 -25 -5
0 -10 11 -10 25 0 14 5 25 10 25 6 0 10 -11 10 -25z"/>
<path d="M1260 90 c0 -47 4 -80 10 -80 6 0 10 28 11 63 l1 62 22 -63 c12 -35
26 -64 31 -65 6 -1 11 34 13 81 2 52 -1 82 -8 82 -6 0 -10 -26 -11 -62 l-1
-63 -21 63 c-30 88 -47 82 -47 -18z"/>
</g>
</svg>
